<mxfile host="app.diagrams.net" agent="Mozilla/5.0 (Macintosh; Intel Mac OS X 10_15_7) AppleWebKit/605.1.15 (KHTML, like Gecko) Version/18.3.1 Safari/605.1.15" version="26.2.9">
  <diagram name="Page-1" id="0pcNmzw02PAVXQzV3ASt">
    <mxGraphModel dx="1014" dy="560" grid="1" gridSize="10" guides="1" tooltips="1" connect="1" arrows="1" fold="1" page="1" pageScale="1" pageWidth="827" pageHeight="1169" math="0" shadow="0">
      <root>
        <mxCell id="0" />
        <mxCell id="1" parent="0" />
        <mxCell id="d_ZuPO5NHQpU5u4CnmWL-1" value="game initialization" style="rounded=0;whiteSpace=wrap;html=1;" vertex="1" parent="1">
          <mxGeometry x="180" y="20" width="100" height="50" as="geometry" />
        </mxCell>
        <mxCell id="d_ZuPO5NHQpU5u4CnmWL-2" value="" style="endArrow=none;html=1;rounded=0;entryX=0;entryY=1;entryDx=0;entryDy=0;exitX=0.5;exitY=0;exitDx=0;exitDy=0;" edge="1" parent="1" source="d_ZuPO5NHQpU5u4CnmWL-3" target="d_ZuPO5NHQpU5u4CnmWL-1">
          <mxGeometry width="50" height="50" relative="1" as="geometry">
            <mxPoint x="280" y="70" as="sourcePoint" />
            <mxPoint x="360" y="50" as="targetPoint" />
          </mxGeometry>
        </mxCell>
        <mxCell id="d_ZuPO5NHQpU5u4CnmWL-3" value="&lt;font style=&quot;font-size: 9px;&quot;&gt;Set up screen dimensions&lt;/font&gt;" style="rounded=0;whiteSpace=wrap;html=1;" vertex="1" parent="1">
          <mxGeometry x="10" y="85" width="120" height="30" as="geometry" />
        </mxCell>
        <mxCell id="d_ZuPO5NHQpU5u4CnmWL-7" value="&lt;font style=&quot;font-size: 9px;&quot;&gt;Display background, player, dark overlay&lt;/font&gt;" style="rounded=0;whiteSpace=wrap;html=1;" vertex="1" parent="1">
          <mxGeometry x="134" y="85" width="116" height="40" as="geometry" />
        </mxCell>
        <mxCell id="d_ZuPO5NHQpU5u4CnmWL-8" value="&lt;font style=&quot;font-size: 9px;&quot;&gt;Set up FONTS&lt;/font&gt;" style="rounded=0;whiteSpace=wrap;html=1;" vertex="1" parent="1">
          <mxGeometry x="257" y="85" width="116" height="20" as="geometry" />
        </mxCell>
        <mxCell id="d_ZuPO5NHQpU5u4CnmWL-9" value="" style="endArrow=none;html=1;rounded=0;exitX=0.5;exitY=0;exitDx=0;exitDy=0;entryX=1;entryY=0.75;entryDx=0;entryDy=0;" edge="1" parent="1" source="d_ZuPO5NHQpU5u4CnmWL-8" target="d_ZuPO5NHQpU5u4CnmWL-1">
          <mxGeometry width="50" height="50" relative="1" as="geometry">
            <mxPoint x="400" y="100" as="sourcePoint" />
            <mxPoint x="450" y="50" as="targetPoint" />
          </mxGeometry>
        </mxCell>
        <mxCell id="d_ZuPO5NHQpU5u4CnmWL-12" value="" style="endArrow=none;html=1;rounded=0;exitX=0.5;exitY=0;exitDx=0;exitDy=0;" edge="1" parent="1" source="d_ZuPO5NHQpU5u4CnmWL-7" target="d_ZuPO5NHQpU5u4CnmWL-1">
          <mxGeometry width="50" height="50" relative="1" as="geometry">
            <mxPoint x="350" y="170" as="sourcePoint" />
            <mxPoint x="400" y="130" as="targetPoint" />
          </mxGeometry>
        </mxCell>
        <mxCell id="d_ZuPO5NHQpU5u4CnmWL-13" value="" style="endArrow=none;html=1;rounded=0;exitX=0.47;exitY=0.026;exitDx=0;exitDy=0;exitPerimeter=0;" edge="1" parent="1" source="d_ZuPO5NHQpU5u4CnmWL-14">
          <mxGeometry width="50" height="50" relative="1" as="geometry">
            <mxPoint x="570" y="90" as="sourcePoint" />
            <mxPoint x="280" y="40" as="targetPoint" />
          </mxGeometry>
        </mxCell>
        <mxCell id="d_ZuPO5NHQpU5u4CnmWL-14" value="main game loop" style="rounded=0;whiteSpace=wrap;html=1;" vertex="1" parent="1">
          <mxGeometry x="520" y="95" width="120" height="60" as="geometry" />
        </mxCell>
        <mxCell id="d_ZuPO5NHQpU5u4CnmWL-16" value="" style="curved=1;endArrow=classic;html=1;rounded=0;" edge="1" parent="1">
          <mxGeometry width="50" height="50" relative="1" as="geometry">
            <mxPoint x="700" y="90" as="sourcePoint" />
            <mxPoint x="710" y="10" as="targetPoint" />
            <Array as="points">
              <mxPoint x="760" y="110" />
              <mxPoint x="770" y="50" />
              <mxPoint x="780" y="20" />
            </Array>
          </mxGeometry>
        </mxCell>
        <mxCell id="d_ZuPO5NHQpU5u4CnmWL-19" value="&lt;font style=&quot;font-size: 9px;&quot;&gt;set up game variables&amp;nbsp;&lt;/font&gt;" style="rounded=0;whiteSpace=wrap;html=1;" vertex="1" parent="1">
          <mxGeometry x="377" y="85" width="116" height="30" as="geometry" />
        </mxCell>
        <mxCell id="d_ZuPO5NHQpU5u4CnmWL-23" value="" style="endArrow=none;html=1;rounded=0;exitX=0.5;exitY=0;exitDx=0;exitDy=0;entryX=1;entryY=0.5;entryDx=0;entryDy=0;" edge="1" parent="1" source="d_ZuPO5NHQpU5u4CnmWL-19" target="d_ZuPO5NHQpU5u4CnmWL-1">
          <mxGeometry width="50" height="50" relative="1" as="geometry">
            <mxPoint x="230" y="110" as="sourcePoint" />
            <mxPoint x="280" y="60" as="targetPoint" />
          </mxGeometry>
        </mxCell>
        <mxCell id="d_ZuPO5NHQpU5u4CnmWL-25" value="" style="endArrow=none;html=1;rounded=0;entryX=0.208;entryY=1.007;entryDx=0;entryDy=0;entryPerimeter=0;" edge="1" parent="1" target="d_ZuPO5NHQpU5u4CnmWL-14">
          <mxGeometry width="50" height="50" relative="1" as="geometry">
            <mxPoint x="170" y="210" as="sourcePoint" />
            <mxPoint x="540" y="160" as="targetPoint" />
          </mxGeometry>
        </mxCell>
        <mxCell id="d_ZuPO5NHQpU5u4CnmWL-27" value="" style="endArrow=none;html=1;rounded=0;entryX=0.25;entryY=1;entryDx=0;entryDy=0;" edge="1" parent="1" source="d_ZuPO5NHQpU5u4CnmWL-24" target="d_ZuPO5NHQpU5u4CnmWL-14">
          <mxGeometry width="50" height="50" relative="1" as="geometry">
            <mxPoint x="430" y="200" as="sourcePoint" />
            <mxPoint x="550" y="160" as="targetPoint" />
          </mxGeometry>
        </mxCell>
        <mxCell id="d_ZuPO5NHQpU5u4CnmWL-28" value="key pressed" style="rounded=0;whiteSpace=wrap;html=1;" vertex="1" parent="1">
          <mxGeometry x="370" y="200" width="116" height="20" as="geometry" />
        </mxCell>
        <mxCell id="d_ZuPO5NHQpU5u4CnmWL-29" value="" style="endArrow=none;html=1;rounded=0;entryX=0.25;entryY=1;entryDx=0;entryDy=0;" edge="1" parent="1" target="d_ZuPO5NHQpU5u4CnmWL-14">
          <mxGeometry width="50" height="50" relative="1" as="geometry">
            <mxPoint x="430" y="200" as="sourcePoint" />
            <mxPoint x="550" y="155" as="targetPoint" />
          </mxGeometry>
        </mxCell>
        <mxCell id="d_ZuPO5NHQpU5u4CnmWL-24" value="" style="rhombus;whiteSpace=wrap;html=1;rotation=20;" vertex="1" parent="1">
          <mxGeometry x="538" y="154" width="20" height="20" as="geometry" />
        </mxCell>
        <mxCell id="d_ZuPO5NHQpU5u4CnmWL-30" value="" style="endArrow=none;html=1;rounded=0;entryX=0.25;entryY=1;entryDx=0;entryDy=0;" edge="1" parent="1" target="d_ZuPO5NHQpU5u4CnmWL-14">
          <mxGeometry width="50" height="50" relative="1" as="geometry">
            <mxPoint x="560" y="220" as="sourcePoint" />
            <mxPoint x="580" y="180" as="targetPoint" />
          </mxGeometry>
        </mxCell>
        <mxCell id="d_ZuPO5NHQpU5u4CnmWL-31" value="process" style="rounded=0;whiteSpace=wrap;html=1;" vertex="1" parent="1">
          <mxGeometry x="520" y="220" width="90" height="20" as="geometry" />
        </mxCell>
        <mxCell id="d_ZuPO5NHQpU5u4CnmWL-32" value="" style="endArrow=none;html=1;rounded=0;entryX=0.25;entryY=1;entryDx=0;entryDy=0;exitX=0.5;exitY=0;exitDx=0;exitDy=0;" edge="1" parent="1" source="d_ZuPO5NHQpU5u4CnmWL-34">
          <mxGeometry width="50" height="50" relative="1" as="geometry">
            <mxPoint x="300" y="260" as="sourcePoint" />
            <mxPoint x="534" y="240" as="targetPoint" />
          </mxGeometry>
        </mxCell>
        <mxCell id="d_ZuPO5NHQpU5u4CnmWL-34" value="q" style="rounded=0;whiteSpace=wrap;html=1;" vertex="1" parent="1">
          <mxGeometry x="200" y="260" width="30" height="20" as="geometry" />
        </mxCell>
        <mxCell id="d_ZuPO5NHQpU5u4CnmWL-36" value="w" style="rounded=0;whiteSpace=wrap;html=1;" vertex="1" parent="1">
          <mxGeometry x="280" y="260" width="30" height="20" as="geometry" />
        </mxCell>
        <mxCell id="d_ZuPO5NHQpU5u4CnmWL-37" value="a" style="rounded=0;whiteSpace=wrap;html=1;" vertex="1" parent="1">
          <mxGeometry x="368" y="260" width="30" height="20" as="geometry" />
        </mxCell>
        <mxCell id="d_ZuPO5NHQpU5u4CnmWL-38" value="s" style="rounded=0;whiteSpace=wrap;html=1;" vertex="1" parent="1">
          <mxGeometry x="440" y="260" width="30" height="20" as="geometry" />
        </mxCell>
        <mxCell id="d_ZuPO5NHQpU5u4CnmWL-39" value="d" style="rounded=0;whiteSpace=wrap;html=1;" vertex="1" parent="1">
          <mxGeometry x="508" y="260" width="30" height="20" as="geometry" />
        </mxCell>
        <mxCell id="d_ZuPO5NHQpU5u4CnmWL-40" value="e" style="rounded=0;whiteSpace=wrap;html=1;" vertex="1" parent="1">
          <mxGeometry x="580" y="260" width="30" height="20" as="geometry" />
        </mxCell>
        <mxCell id="d_ZuPO5NHQpU5u4CnmWL-41" value="ENTER" style="rounded=0;whiteSpace=wrap;html=1;" vertex="1" parent="1">
          <mxGeometry x="640" y="260" width="50" height="20" as="geometry" />
        </mxCell>
        <mxCell id="d_ZuPO5NHQpU5u4CnmWL-42" value="" style="endArrow=none;html=1;rounded=0;entryX=0.25;entryY=1;entryDx=0;entryDy=0;exitX=0.75;exitY=0;exitDx=0;exitDy=0;" edge="1" parent="1" source="d_ZuPO5NHQpU5u4CnmWL-36" target="d_ZuPO5NHQpU5u4CnmWL-31">
          <mxGeometry width="50" height="50" relative="1" as="geometry">
            <mxPoint x="305" y="270" as="sourcePoint" />
            <mxPoint x="544" y="250" as="targetPoint" />
          </mxGeometry>
        </mxCell>
        <mxCell id="d_ZuPO5NHQpU5u4CnmWL-43" value="" style="endArrow=none;html=1;rounded=0;entryX=0.5;entryY=1;entryDx=0;entryDy=0;exitX=0.75;exitY=0;exitDx=0;exitDy=0;" edge="1" parent="1" source="d_ZuPO5NHQpU5u4CnmWL-37" target="d_ZuPO5NHQpU5u4CnmWL-31">
          <mxGeometry width="50" height="50" relative="1" as="geometry">
            <mxPoint x="383" y="270" as="sourcePoint" />
            <mxPoint x="553" y="250" as="targetPoint" />
          </mxGeometry>
        </mxCell>
        <mxCell id="d_ZuPO5NHQpU5u4CnmWL-44" value="" style="endArrow=none;html=1;rounded=0;entryX=0.5;entryY=1;entryDx=0;entryDy=0;exitX=1;exitY=0;exitDx=0;exitDy=0;" edge="1" parent="1" source="d_ZuPO5NHQpU5u4CnmWL-38" target="d_ZuPO5NHQpU5u4CnmWL-31">
          <mxGeometry width="50" height="50" relative="1" as="geometry">
            <mxPoint x="446" y="270" as="sourcePoint" />
            <mxPoint x="575" y="250" as="targetPoint" />
          </mxGeometry>
        </mxCell>
        <mxCell id="d_ZuPO5NHQpU5u4CnmWL-45" value="" style="endArrow=none;html=1;rounded=0;entryX=0.5;entryY=1;entryDx=0;entryDy=0;exitX=0.5;exitY=0;exitDx=0;exitDy=0;" edge="1" parent="1" source="d_ZuPO5NHQpU5u4CnmWL-39" target="d_ZuPO5NHQpU5u4CnmWL-31">
          <mxGeometry width="50" height="50" relative="1" as="geometry">
            <mxPoint x="500" y="270" as="sourcePoint" />
            <mxPoint x="575" y="250" as="targetPoint" />
          </mxGeometry>
        </mxCell>
        <mxCell id="d_ZuPO5NHQpU5u4CnmWL-47" value="" style="endArrow=none;html=1;rounded=0;entryX=0.5;entryY=1;entryDx=0;entryDy=0;exitX=0.5;exitY=0;exitDx=0;exitDy=0;" edge="1" parent="1" source="d_ZuPO5NHQpU5u4CnmWL-40" target="d_ZuPO5NHQpU5u4CnmWL-31">
          <mxGeometry width="50" height="50" relative="1" as="geometry">
            <mxPoint x="533" y="270" as="sourcePoint" />
            <mxPoint x="575" y="250" as="targetPoint" />
          </mxGeometry>
        </mxCell>
        <mxCell id="d_ZuPO5NHQpU5u4CnmWL-48" value="" style="endArrow=none;html=1;rounded=0;entryX=0.75;entryY=1;entryDx=0;entryDy=0;exitX=0.5;exitY=0;exitDx=0;exitDy=0;" edge="1" parent="1" source="d_ZuPO5NHQpU5u4CnmWL-41" target="d_ZuPO5NHQpU5u4CnmWL-31">
          <mxGeometry width="50" height="50" relative="1" as="geometry">
            <mxPoint x="543" y="280" as="sourcePoint" />
            <mxPoint x="585" y="260" as="targetPoint" />
          </mxGeometry>
        </mxCell>
        <mxCell id="d_ZuPO5NHQpU5u4CnmWL-50" value="" style="endArrow=none;html=1;rounded=0;" edge="1" parent="1">
          <mxGeometry width="50" height="50" relative="1" as="geometry">
            <mxPoint x="215" y="320" as="sourcePoint" />
            <mxPoint x="215" y="300" as="targetPoint" />
          </mxGeometry>
        </mxCell>
        <mxCell id="d_ZuPO5NHQpU5u4CnmWL-51" value="" style="rhombus;whiteSpace=wrap;html=1;" vertex="1" parent="1">
          <mxGeometry x="205" y="280" width="20" height="20" as="geometry" />
        </mxCell>
        <mxCell id="d_ZuPO5NHQpU5u4CnmWL-53" value="" style="rhombus;whiteSpace=wrap;html=1;" vertex="1" parent="1">
          <mxGeometry x="285" y="280" width="20" height="20" as="geometry" />
        </mxCell>
        <mxCell id="d_ZuPO5NHQpU5u4CnmWL-54" value="" style="endArrow=none;html=1;rounded=0;" edge="1" parent="1">
          <mxGeometry width="50" height="50" relative="1" as="geometry">
            <mxPoint x="294.58" y="320" as="sourcePoint" />
            <mxPoint x="294.58" y="300" as="targetPoint" />
          </mxGeometry>
        </mxCell>
        <mxCell id="d_ZuPO5NHQpU5u4CnmWL-55" value="" style="endArrow=none;html=1;rounded=0;" edge="1" parent="1">
          <mxGeometry width="50" height="50" relative="1" as="geometry">
            <mxPoint x="382.58" y="320" as="sourcePoint" />
            <mxPoint x="382.58" y="300" as="targetPoint" />
          </mxGeometry>
        </mxCell>
        <mxCell id="d_ZuPO5NHQpU5u4CnmWL-56" value="" style="endArrow=none;html=1;rounded=0;" edge="1" parent="1">
          <mxGeometry width="50" height="50" relative="1" as="geometry">
            <mxPoint x="456" y="320" as="sourcePoint" />
            <mxPoint x="455.58000000000004" y="300" as="targetPoint" />
          </mxGeometry>
        </mxCell>
        <mxCell id="d_ZuPO5NHQpU5u4CnmWL-57" value="" style="endArrow=none;html=1;rounded=0;" edge="1" parent="1">
          <mxGeometry width="50" height="50" relative="1" as="geometry">
            <mxPoint x="519.1700000000001" y="320" as="sourcePoint" />
            <mxPoint x="519.1700000000001" y="300" as="targetPoint" />
          </mxGeometry>
        </mxCell>
        <mxCell id="d_ZuPO5NHQpU5u4CnmWL-58" value="" style="endArrow=none;html=1;rounded=0;" edge="1" parent="1">
          <mxGeometry width="50" height="50" relative="1" as="geometry">
            <mxPoint x="594.58" y="320" as="sourcePoint" />
            <mxPoint x="594.58" y="300" as="targetPoint" />
          </mxGeometry>
        </mxCell>
        <mxCell id="d_ZuPO5NHQpU5u4CnmWL-60" value="" style="rhombus;whiteSpace=wrap;html=1;" vertex="1" parent="1">
          <mxGeometry x="373" y="280" width="20" height="20" as="geometry" />
        </mxCell>
        <mxCell id="d_ZuPO5NHQpU5u4CnmWL-61" value="" style="rhombus;whiteSpace=wrap;html=1;" vertex="1" parent="1">
          <mxGeometry x="445" y="280" width="20" height="20" as="geometry" />
        </mxCell>
        <mxCell id="d_ZuPO5NHQpU5u4CnmWL-62" value="" style="rhombus;whiteSpace=wrap;html=1;" vertex="1" parent="1">
          <mxGeometry x="508" y="280" width="20" height="20" as="geometry" />
        </mxCell>
        <mxCell id="d_ZuPO5NHQpU5u4CnmWL-63" value="" style="rhombus;whiteSpace=wrap;html=1;" vertex="1" parent="1">
          <mxGeometry x="585" y="280" width="20" height="20" as="geometry" />
        </mxCell>
        <mxCell id="d_ZuPO5NHQpU5u4CnmWL-64" value="&lt;font style=&quot;font-size: 9px;&quot;&gt;throw pickaxe&lt;/font&gt;" style="rounded=0;whiteSpace=wrap;html=1;" vertex="1" parent="1">
          <mxGeometry x="185" y="320" width="60" height="20" as="geometry" />
        </mxCell>
        <mxCell id="d_ZuPO5NHQpU5u4CnmWL-65" value="&lt;font style=&quot;font-size: 9px;&quot;&gt;moves up&lt;/font&gt;" style="rounded=0;whiteSpace=wrap;html=1;" vertex="1" parent="1">
          <mxGeometry x="265" y="321" width="60" height="20" as="geometry" />
        </mxCell>
        <mxCell id="d_ZuPO5NHQpU5u4CnmWL-66" value="&lt;font style=&quot;font-size: 9px;&quot;&gt;moves left&lt;/font&gt;" style="rounded=0;whiteSpace=wrap;html=1;" vertex="1" parent="1">
          <mxGeometry x="353" y="320" width="60" height="20" as="geometry" />
        </mxCell>
        <mxCell id="d_ZuPO5NHQpU5u4CnmWL-72" value="&lt;font style=&quot;font-size: 9px;&quot;&gt;moves down&lt;/font&gt;" style="rounded=0;whiteSpace=wrap;html=1;" vertex="1" parent="1">
          <mxGeometry x="426" y="320" width="60" height="20" as="geometry" />
        </mxCell>
        <mxCell id="d_ZuPO5NHQpU5u4CnmWL-73" value="&lt;font style=&quot;font-size: 9px;&quot;&gt;moves right&lt;/font&gt;" style="rounded=0;whiteSpace=wrap;html=1;" vertex="1" parent="1">
          <mxGeometry x="493" y="320" width="60" height="20" as="geometry" />
        </mxCell>
        <mxCell id="d_ZuPO5NHQpU5u4CnmWL-74" value="&lt;font style=&quot;font-size: 9px;&quot;&gt;enters door&lt;/font&gt;" style="rounded=0;whiteSpace=wrap;html=1;" vertex="1" parent="1">
          <mxGeometry x="565" y="320" width="60" height="20" as="geometry" />
        </mxCell>
        <mxCell id="d_ZuPO5NHQpU5u4CnmWL-75" value="" style="ellipse;whiteSpace=wrap;html=1;aspect=fixed;fillColor=#000000;" vertex="1" parent="1">
          <mxGeometry x="575" y="284" width="10" height="10" as="geometry" />
        </mxCell>
        <mxCell id="d_ZuPO5NHQpU5u4CnmWL-76" value="" style="endArrow=classic;html=1;rounded=0;exitX=0.5;exitY=1;exitDx=0;exitDy=0;" edge="1" parent="1">
          <mxGeometry width="50" height="50" relative="1" as="geometry">
            <mxPoint x="580" y="293" as="sourcePoint" />
            <mxPoint x="580" y="313" as="targetPoint" />
          </mxGeometry>
        </mxCell>
        <mxCell id="d_ZuPO5NHQpU5u4CnmWL-77" value="&lt;font style=&quot;font-size: 4px;&quot;&gt;if key is collected&lt;/font&gt;" style="text;html=1;align=center;verticalAlign=middle;resizable=0;points=[];autosize=1;strokeColor=none;fillColor=none;" vertex="1" parent="1">
          <mxGeometry x="538" y="280" width="50" height="30" as="geometry" />
        </mxCell>
        <mxCell id="d_ZuPO5NHQpU5u4CnmWL-78" value="" style="rhombus;whiteSpace=wrap;html=1;" vertex="1" parent="1">
          <mxGeometry x="655" y="280" width="20" height="20" as="geometry" />
        </mxCell>
        <mxCell id="d_ZuPO5NHQpU5u4CnmWL-79" value="" style="endArrow=none;html=1;rounded=0;" edge="1" parent="1">
          <mxGeometry width="50" height="50" relative="1" as="geometry">
            <mxPoint x="664.8000000000001" y="320" as="sourcePoint" />
            <mxPoint x="664.8000000000001" y="300" as="targetPoint" />
          </mxGeometry>
        </mxCell>
        <mxCell id="d_ZuPO5NHQpU5u4CnmWL-80" value="&lt;font style=&quot;font-size: 9px;&quot;&gt;starts level&lt;/font&gt;" style="rounded=0;whiteSpace=wrap;html=1;" vertex="1" parent="1">
          <mxGeometry x="635" y="320" width="60" height="20" as="geometry" />
        </mxCell>
        <mxCell id="d_ZuPO5NHQpU5u4CnmWL-82" value="" style="endArrow=none;html=1;rounded=0;entryX=0.25;entryY=1;entryDx=0;entryDy=0;" edge="1" parent="1">
          <mxGeometry width="50" height="50" relative="1" as="geometry">
            <mxPoint x="80" y="268" as="sourcePoint" />
            <mxPoint x="520" y="228" as="targetPoint" />
          </mxGeometry>
        </mxCell>
        <mxCell id="d_ZuPO5NHQpU5u4CnmWL-84" value="&lt;font style=&quot;font-size: 9px;&quot;&gt;SHIFT + Enter&lt;/font&gt;" style="rounded=0;whiteSpace=wrap;html=1;" vertex="1" parent="1">
          <mxGeometry x="30" y="268" width="66" height="20" as="geometry" />
        </mxCell>
        <mxCell id="d_ZuPO5NHQpU5u4CnmWL-85" value="" style="rhombus;whiteSpace=wrap;html=1;" vertex="1" parent="1">
          <mxGeometry x="53" y="288" width="20" height="20" as="geometry" />
        </mxCell>
        <mxCell id="d_ZuPO5NHQpU5u4CnmWL-86" value="" style="endArrow=none;html=1;rounded=0;" edge="1" parent="1">
          <mxGeometry width="50" height="50" relative="1" as="geometry">
            <mxPoint x="62.80000000000001" y="328" as="sourcePoint" />
            <mxPoint x="62.80000000000001" y="308" as="targetPoint" />
          </mxGeometry>
        </mxCell>
        <mxCell id="d_ZuPO5NHQpU5u4CnmWL-87" value="&lt;font style=&quot;font-size: 9px;&quot;&gt;start HARDCORE mode&lt;/font&gt;" style="rounded=0;whiteSpace=wrap;html=1;" vertex="1" parent="1">
          <mxGeometry x="21.5" y="320" width="77" height="30" as="geometry" />
        </mxCell>
      </root>
    </mxGraphModel>
  </diagram>
</mxfile>
